<svg xmlns="http://www.w3.org/2000/svg" width="33" height="33" viewBox="0 0 33 33">
    <g fill="none" fill-rule="evenodd">
        <g fill="#FFF" fill-rule="nonzero">
            <g>
                <g>
                    <path d="M14.556 12.889v1.444H13V16.5h1.556V23h3.11v-6.5h2.07L20 14.333h-2.333V13.07c0-.585.062-.895 1.034-.895H20V10h-2.084c-2.49 0-3.36 1.083-3.36 2.889z" transform="translate(-1306.000000, -6722.000000) translate(0.000000, 6343.000000) translate(1306.000000, 379.000000)"/>
                    <path d="M16.5 0C7.387 0 0 7.387 0 16.5S7.387 33 16.5 33 33 25.613 33 16.5 25.613 0 16.5 0zm0 31.5c-8.284 0-15-6.716-15-15 0-8.284 6.716-15 15-15 8.284 0 15 6.716 15 15 0 8.284-6.716 15-15 15z" transform="translate(-1306.000000, -6722.000000) translate(0.000000, 6343.000000) translate(1306.000000, 379.000000)"/>
                </g>
            </g>
        </g>
    </g>
</svg>
