<svg xmlns="http://www.w3.org/2000/svg" width="33" height="33" viewBox="0 0 33 33">
    <g fill="none" fill-rule="evenodd">
        <g fill="#FFF" fill-rule="nonzero">
            <g>
                <g>
                    <path d="M16.5 0C7.387 0 0 7.387 0 16.5S7.387 33 16.5 33 33 25.613 33 16.5 25.613 0 16.5 0zm0 31.5c-8.284 0-15-6.716-15-15 0-8.284 6.716-15 15-15 8.284 0 15 6.716 15 15 0 8.284-6.716 15-15 15z" transform="translate(-1432.000000, -6722.000000) translate(0.000000, 6343.000000) translate(1432.000000, 379.000000)"/>
                    <path d="M21 9h-9c-1.657 0-3 1.343-3 3v9c0 1.657 1.343 3 3 3h9c1.657 0 3-1.343 3-3v-9c0-1.657-1.343-3-3-3zm-1.5 2.25h2.25v2.25H19.5v-2.25zm-3 2.25c1.657 0 3 1.343 3 3s-1.343 3-3 3-3-1.343-3-3 1.343-3 3-3zm6 7.5c0 .828-.672 1.5-1.5 1.5h-9c-.828 0-1.5-.672-1.5-1.5v-5.25h1.575c-.45 2.444 1.166 4.79 3.61 5.241 2.444.45 4.79-1.166 5.24-3.61.054-.29.08-.586.075-.881-.004-.252-.029-.503-.075-.75H22.5V21z" transform="translate(-1432.000000, -6722.000000) translate(0.000000, 6343.000000) translate(1432.000000, 379.000000)"/>
                </g>
            </g>
        </g>
    </g>
</svg>
