<svg xmlns="http://www.w3.org/2000/svg" width="33" height="33" viewBox="0 0 33 33">
    <g fill="none" fill-rule="evenodd">
        <g fill="#FFF" fill-rule="nonzero">
            <g>
                <g>
                    <path d="M16.33 13h.332c.736 0 1.334-.494 1.338-1.106v-1.801c-.013-.604-.603-1.09-1.33-1.093h-.332c-.736 0-1.334.494-1.338 1.106v1.801c.013.604.603 1.09 1.33 1.093zm-.333-2.975c0-.23.226-.418.503-.418.278 0 .503.188.503.418v1.936c0 .231-.226.418-.503.418-.278 0-.502-.187-.503-.418v-1.936zM12.438 13L13.636 13 13.636 10.517 15 7 13.884 7 13.058 9.335 12.231 7 11 7 12.455 10.517zM18.758 13c.476-.038.922-.21 1.264-.486v.419H21V9h-.978v3.049s-.335.324-.652.324c-.318 0-.335-.21-.335-.21V9H18v3.46c.057.31.379.54.758.54zM18.5 19c-.194.007-.376.079-.5.197v2.631c.128.112.31.174.5.172.5 0 .5-.439.5-.439V19.44S18.911 19 18.5 19z" transform="translate(-1369.000000, -6722.000000) translate(0.000000, 6343.000000) translate(1369.000000, 379.000000)"/>
                    <path d="M16.5 0C7.387 0 0 7.387 0 16.5S7.387 33 16.5 33 33 25.613 33 16.5 25.613 0 16.5 0zm0 31.5c-8.284 0-15-6.716-15-15 0-8.284 6.716-15 15-15 8.284 0 15 6.716 15 15 0 8.284-6.716 15-15 15z" transform="translate(-1369.000000, -6722.000000) translate(0.000000, 6343.000000) translate(1369.000000, 379.000000)"/>
                    <path d="M21.5 19c-.5 0-.5.437-.5.437V20h1v-.563S22 19 21.5 19z" transform="translate(-1369.000000, -6722.000000) translate(0.000000, 6343.000000) translate(1369.000000, 379.000000)"/>
                    <path d="M22.405 14.149h-.055S19.436 14 16.5 14c-2.936 0-5.865.142-5.865.142-1.28-.039-2.352.885-2.394 2.065-.001.024-.002.048-.001.072-.148.896-.228 1.8-.24 2.707.01.915.09 1.83.24 2.735-.001 1.18 1.036 2.137 2.316 2.138l.079-.001S13.517 24 16.5 24s5.865-.142 5.865-.142c1.28.039 2.352-.885 2.394-2.065.001-.024.002-.048.001-.072.148-.906.228-1.82.24-2.735-.01-.916-.09-1.83-.24-2.735-.02-1.18-1.075-2.121-2.355-2.102zm-9.375 2.387h-1.166v5.54h-1.152v-5.54H9.545v-.912h3.509l-.024.912zm3.037 5.54h-.966v-.42c-.328.283-.75.456-1.197.492-.36.007-.668-.234-.719-.563v-4.351h.997V21.3s0 .213.317.213c.316 0 .641-.349.641-.349v-3.931h.958l-.03 4.843zm2.867.072c-.406.004-.79-.17-1.035-.47v.399h-1.044v-6.453h1.036v2.094c.265-.277.636-.448 1.035-.477.642 0 .881.491.881 1.125l.008 2.657s0 1.125-.88 1.125zm4.629-2.293h-1.994v1.054s0 .491.48.491c.478 0 .478-.491.478-.491v-.499h1.036v.77c-.139.616-.757 1.039-1.438.982-.704.059-1.354-.354-1.545-.983V18.43c.021-.684.64-1.223 1.383-1.203.054.002.109.006.162.014.69-.091 1.327.35 1.426.984.01.068.014.137.012.205v1.425z" transform="translate(-1369.000000, -6722.000000) translate(0.000000, 6343.000000) translate(1369.000000, 379.000000)"/>
                </g>
            </g>
        </g>
    </g>
</svg>
