<svg xmlns="http://www.w3.org/2000/svg" width="27" height="27" viewBox="0 0 27 27">
    <g fill="none" fill-rule="evenodd">
        <g fill="#000" fill-rule="nonzero">
            <g>
                <g>
                    <path d="M2.078 10.892l2.35-1.03c.399-.174.585-.65.418-1.063-.168-.414-.627-.608-1.025-.434l-.583.256c1.787-4.234 5.829-6.99 10.316-6.99 5.138 0 9.617 3.6 10.905 8.76.108.434.535.695.954.583.419-.113.67-.556.562-.99C24.509 4.105 19.399 0 13.554 0 8.42 0 3.792 3.178 1.772 8.048l-.268-.659c-.168-.413-.627-.607-1.025-.433-.398.174-.585.65-.417 1.064l.991 2.438c.168.414.627.608 1.025.434zM26.938 18.98l-.991-2.438c-.168-.414-.627-.608-1.025-.433l-2.35 1.029c-.399.174-.585.65-.418 1.063.168.414.627.608 1.025.434l.583-.256c-1.787 4.234-5.829 6.99-10.316 6.99-5.138 0-9.618-3.6-10.905-8.76-.108-.434-.536-.695-.954-.583-.419.113-.67.556-.562.99C2.491 22.895 7.601 27 13.446 27c5.134 0 9.762-3.178 11.782-8.048l.268.659c.168.413.627.607 1.025.433.398-.174.585-.65.417-1.064z" transform="translate(-1318.000000, -940.000000) translate(1318.000000, 940.000000)"/>
                    <path d="M14.351 9.626L15 10V7h-2v3l.644-.371c.214-.125.476-.136.707-.003z" transform="translate(-1318.000000, -940.000000) translate(1318.000000, 940.000000)"/>
                    <path d="M10.49 10.825L10.487 7H7.77C7.344 7 7 7.347 7 7.776v10.448c0 .429.344.776.77.776h10.46c.426 0 .77-.347.77-.776V7.776c0-.429-.344-.776-.77-.776h-2.717v3.825c0 .615-.673.976-1.177.658L13 10.806l-1.401.71c-.515.26-1.11-.129-1.109-.691z" transform="translate(-1318.000000, -940.000000) translate(1318.000000, 940.000000)"/>
                </g>
            </g>
        </g>
    </g>
</svg>
