<svg xmlns="http://www.w3.org/2000/svg" width="27" height="27" viewBox="0 0 27 27">
    <g fill="none" fill-rule="evenodd">
        <g fill="#000" fill-rule="nonzero">
            <g>
                <g>
                    <path d="M13.5 0C6.056 0 0 6.056 0 13.5S6.056 27 13.5 27 27 20.944 27 13.5 20.944 0 13.5 0zm0 24.545c-6.09 0-11.045-4.955-11.045-11.045S7.409 2.455 13.5 2.455c6.09 0 11.045 4.955 11.045 11.045S19.59 24.545 13.5 24.545z" transform="translate(-992.000000, -940.000000) translate(992.000000, 940.000000)"/>
                    <path d="M18.951 9.35l-6.79 6.764-3.112-3.1c-.469-.467-1.229-.467-1.697 0-.47.467-.47 1.223 0 1.69l3.96 3.946c.225.224.53.35.849.35.318 0 .624-.126.849-.35l7.638-7.609c.47-.467.47-1.224 0-1.69-.468-.468-1.228-.468-1.697 0z" transform="translate(-992.000000, -940.000000) translate(992.000000, 940.000000)"/>
                </g>
            </g>
        </g>
    </g>
</svg>
