<svg xmlns="http://www.w3.org/2000/svg" width="27" height="16" viewBox="0 0 27 16">
    <g fill="none" fill-rule="evenodd">
        <g fill="#000" fill-rule="nonzero">
            <g>
                <g>
                    <path d="M19.248.16c2.341.543 3.236 1.914 4.36 3.8h-4.36V.16zM5.568 4.118c.458 0 .79.221.79.74 0 .436-.352.79-.788.791H.79c-.437 0-.791.355-.791.792 0 .438.354.792.791.792h7.12c.44 0 .793.355.793.792 0 .438-.354.792-.79.792H.79c-.437 0-.791.355-.791.793 0 .437.354.792.791.792h1.74v2.376c0 .437.354.792.791.792h1.59C5.196 14.969 6.43 16 7.884 16c1.454 0 2.688-1.03 2.971-2.429h8.032C19.17 14.969 20.404 16 21.858 16c1.455 0 2.688-1.03 2.972-2.429h1.379c.437 0 .791-.355.791-.792V8.026c0-2.324-2.448-2.478-2.45-2.481h-6.093c-.437 0-.791-.355-.791-.793V0H3.322c-.437 0-.79.355-.79.792v1.743h-.95c-.437 0-.791.354-.791.792 0 .437.354.792.791.792h3.986zm17.316 7.818c.566.567.566 1.487 0 2.054-.911.912-2.476.263-2.476-1.027s1.565-1.94 2.476-1.027zm-13.975 0c.567.567.567 1.487 0 2.054-.91.912-2.475.263-2.475-1.027s1.564-1.94 2.475-1.027z" transform="translate(-688.000000, -948.000000) translate(688.000000, 946.000000) translate(0.000000, 2.000000)"/>
                </g>
            </g>
        </g>
    </g>
</svg>
