<svg xmlns="http://www.w3.org/2000/svg" width="30" height="29" viewBox="0 0 30 29">
    <g fill="none" fill-rule="evenodd">
        <g fill="#000" fill-rule="nonzero">
            <g>
                <g>
                    <path d="M29.868 5.953c-.063-.404-.368-.731-.768-.802l-.57-.102c-3.162-.584-6.03-2.245-8.125-4.714-.032-.038-.07-.07-.101-.102-.4-.347-1.003-.302-1.34.102-2.094 2.463-4.963 4.124-8.124 4.707l-.57.103c-.4.07-.712.397-.769.801-.019.135-.444 3.13.387 6.965H.952c-.527 0-.952.43-.952.962v14.166c0 .531.425.961.952.961H17.79c.527 0 .952-.43.952-.962V25.37c.159.097.318.186.476.276.14.084.305.122.464.122.165 0 .323-.045.47-.128 2.659-1.5 4.83-3.476 6.448-5.861 1.294-1.905 2.234-4.085 2.799-6.458.952-4.027.495-7.233.47-7.368zM1.904 14.84h8.492c.21.667.45 1.314.73 1.943H1.904V14.84zm0 3.867h4.748v8.375H1.904v-8.375zm6.652 8.375v-8.375h1.624v8.375H8.556zm8.282 0h-4.754v-8.375h.007c.216.372.438.73.679 1.083 1.104 1.63 2.469 3.072 4.068 4.297v2.995zM27.52 12.949c-.514 2.136-1.365 4.085-2.526 5.79-1.352 1.989-3.135 3.656-5.312 4.964-2.177-1.308-3.96-2.975-5.313-4.963-1.161-1.706-2.012-3.655-2.526-5.79-.47-1.976-.647-4.009-.527-6.042 3.18-.615 6.093-2.2 8.366-4.527 2.265 2.334 5.185 3.912 8.365 4.527.127 2.027-.051 4.066-.527 6.041z" transform="translate(-400.000000, -938.000000) translate(400.000000, 938.000000)"/>
                    <path d="M23.478 8.102c-.462-.241-1.024-.039-1.255.444l-2.75 5.797-2.862-3.094c-.362-.392-.956-.399-1.324-.026-.375.378-.381.998-.025 1.384l3.786 4.093c.175.189.425.3.675.3.05 0 .094-.007.144-.013.3-.046.562-.248.693-.535l3.337-7.044c.238-.477.05-1.064-.419-1.306z" transform="translate(-400.000000, -938.000000) translate(400.000000, 938.000000)"/>
                </g>
            </g>
        </g>
    </g>
</svg>
