<svg xmlns="http://www.w3.org/2000/svg" width="210" height="30" viewBox="0 0 210 30">
    <g fill="none" fill-rule="evenodd">
        <g fill="#00615B">
            <g>
                <path d="M156.716 29.86c-1.857 0-3.482-.235-4.76-.824-1.276-.588-2.437-1.411-3.25-2.353-.808-1.05-1.399-2.25-1.74-3.529-.38-1.42-.575-2.883-.581-4.353 0-1.53.232-3.059.58-4.47.465-1.412 1.045-2.589 1.974-3.53.812-1.059 1.973-1.765 3.25-2.353 1.277-.588 2.786-.823 4.527-.823 1.742 0 3.367.235 4.644.823 1.277.588 2.438 1.412 3.25 2.353.813.941 1.51 2.235 1.858 3.53.464 1.294.58 2.823.58 4.352 0 1.53-.232 3.06-.58 4.353-.349 1.412-1.045 2.589-1.858 3.647-.812 1.06-1.973 1.765-3.25 2.353-1.277.589-2.902.824-4.644.824m0-18.588c-1.973 0-3.366.588-4.41 1.882-1.046 1.294-1.51 3.059-1.51 5.53 0 2.47.58 4.352 1.51 5.529 1.044 1.294 2.437 1.882 4.41 1.882 1.858 0 3.367-.588 4.296-1.882 1.044-1.294 1.509-3.059 1.509-5.53 0-2.47-.465-4.352-1.51-5.529-1.044-1.294-2.437-1.882-4.295-1.882zm22.637 18.588c-1.857 0-3.482-.235-4.76-.824-1.276-.588-2.437-1.411-3.25-2.353-.808-1.05-1.4-2.25-1.741-3.529-.38-1.42-.574-2.883-.58-4.353 0-1.53.232-3.059.58-4.47.464-1.412 1.045-2.589 1.973-3.53.93-1.059 1.974-1.765 3.25-2.353 1.278-.588 2.787-.823 4.528-.823 1.742 0 3.367.235 4.644.823 1.277.588 2.437 1.412 3.25 2.353.813.941 1.51 2.235 1.857 3.53.349 1.294.58 2.823.58 4.352 0 1.53-.231 3.06-.58 4.353-.348 1.412-1.044 2.589-1.857 3.647-.813 1.06-1.973 1.765-3.25 2.353-1.277.589-2.786.824-4.644.824zm0-18.588c-1.973 0-3.366.588-4.411 1.882-1.045 1.294-1.51 3.059-1.51 5.53 0 2.47.581 4.352 1.51 5.529 1.045 1.294 2.438 1.882 4.411 1.882 1.858 0 3.367-.588 4.295-1.882 1.045-1.294 1.51-3.059 1.51-5.53 0-2.47-.465-4.352-1.51-5.529-.928-1.294-2.321-1.882-4.295-1.882zm28.21 18.61c-.465 0-.93-.235-1.278-.588l-7.081-7.412c-.464-.47-.813-.706-1.045-.94-.348-.118-.696-.236-1.393-.236h-.348v7.412c0 .94-.813 1.764-1.741 1.764h-.93c-.928 0-1.74-.823-1.74-1.764V1.765c0-.941.812-1.765 1.74-1.765h.93c.928 0 1.74.824 1.74 1.765v15.059c.581 0 .93 0 1.278-.118.232-.118.58-.353.929-.588l5.804-6.706c.364-.38.868-.592 1.393-.588.348 0 .812.117 1.045.352l.58.471c.348.235.58.706.697 1.177 0 .47-.116.94-.465 1.176l-5.804 6.588 7.662 8c.348.353.464.824.464 1.177 0 .47-.232.94-.58 1.176l-.58.588c-.465.236-.93.353-1.278.353h.001zm-63.848-11.764c-.348-.824-.813-1.647-1.393-2.236-.58-.588-1.161-1.176-1.858-1.53-.464-.234-.812-.47-1.16-.587.232-.236.58-.353.812-.589.464-.47.929-.94 1.277-1.411.348-.589.697-1.177.929-1.765.232-.706.348-1.294.348-2 0-1.412-.232-2.706-.813-3.765-.58-1.059-1.277-1.882-2.321-2.47-.998-.62-2.099-1.058-3.25-1.294-1.162-.236-2.555-.353-3.832-.353H123.4c-.929 0-1.742.823-1.742 1.764v26.353c0 .941.813 1.765 1.742 1.765h11.028c1.509 0 2.786-.235 4.063-.588 1.16-.353 2.322-.941 3.134-1.647.929-.706 1.51-1.647 2.09-2.706.464-1.059.696-2.353.696-3.647-.116-1.294-.348-2.353-.696-3.294zm-12.77-5.765h-.232c-.929.118-1.625.941-1.625 1.882v.236c0 .94.696 1.764 1.625 1.882h3.947c.58 0 1.045.118 1.625.353.465.118.813.353 1.277.588.348.235.697.588 1.045.941s.58.824.696 1.294c.233.471.233 1.06.233 1.765 0 1.765-.465 2.941-1.51 3.647-1.044.706-2.437 1.059-4.062 1.059h-7.662V3.882h5.224c2.09 0 3.714.353 4.875.942 1.161.588 1.626 1.647 1.626 3.058 0 .824-.117 1.53-.465 2-.222.554-.633 1.013-1.16 1.294-.465.353-1.045.589-1.742.824-.696.118-1.393.235-2.206.235h-.464l-1.045.118zM31.46 29.86c-1.857 0-3.482-.235-4.76-.824-1.276-.588-2.437-1.411-3.25-2.353-.808-1.05-1.399-2.25-1.74-3.529-.38-1.42-.575-2.883-.581-4.353 0-1.53.232-3.059.58-4.47.464-1.412 1.045-2.589 1.974-3.53.812-1.059 1.973-1.765 3.25-2.353 1.277-.588 2.786-.823 4.527-.823 1.742 0 3.367.235 4.644.823 1.277.588 2.438 1.412 3.25 2.353.813.941 1.51 2.235 1.858 3.53.348 1.294.58 2.823.58 4.352 0 1.53-.232 3.06-.58 4.353-.349 1.412-1.045 2.589-1.858 3.647-.812 1.06-1.973 1.765-3.25 2.353-1.277.589-2.902.824-4.644.824zm0-18.588c-1.973 0-3.366.588-4.41 1.882-1.046 1.294-1.51 3.059-1.51 5.53 0 2.47.58 4.352 1.51 5.529 1.044 1.294 2.437 1.882 4.41 1.882 1.858 0 3.367-.588 4.296-1.882 1.044-1.294 1.509-3.059 1.509-5.53 0-2.47-.465-4.352-1.51-5.529-1.044-1.294-2.437-1.882-4.295-1.882zm49.22 18.61c-.463 0-.928-.235-1.276-.588l-7.081-7.412c-.349-.47-.813-.706-1.045-.94-.232-.118-.697-.236-1.393-.236h-.348v7.412c0 .94-.813 1.764-1.742 1.764h-.928c-.929 0-1.742-.823-1.742-1.764V1.765c0-.941.813-1.765 1.742-1.765h.928c.93 0 1.742.824 1.742 1.765v15.059c.58 0 .928 0 1.277-.118.232-.118.58-.353.928-.588l5.805-6.706c.364-.38.868-.592 1.393-.588.348 0 .812.117 1.044.352l.58.471c.35.235.581.706.697 1.177 0 .47-.116.94-.464 1.176l-5.804 6.588 7.661 8c.349.353.465.824.465 1.177 0 .47-.232.94-.58 1.176l-.697.47c-.348.354-.813.471-1.161.471h-.001zM20.316 5.294c-.58-1.176-1.277-2.235-2.206-3.059-.928-.823-1.973-1.411-3.25-1.647-1.16-.353-2.554-.47-3.83-.47H1.74C.813 0 0 .824 0 1.765v26.353c0 .94.813 1.764 1.741 1.764h1.161c.929 0 1.741-.823 1.741-1.764V3.882H10.1c.812 0 1.625.118 2.437.236.697.117 1.393.353 1.974.823.58.353 1.045.941 1.393 1.765.348.706.58 1.765.58 3.059 0 1.059-.232 2-.58 2.706-.348.705-.813 1.294-1.393 1.647-.58.47-1.277.706-1.974.94-.812.236-1.509.236-2.321.236H8.939c-.929.118-1.626.824-1.626 1.765v.235c0 .941.697 1.765 1.626 1.765h1.857c1.51 0 2.902-.235 4.063-.706 1.277-.47 2.322-1.059 3.25-1.882.93-.824 1.626-1.765 2.206-2.942.58-1.176.813-2.47.813-3.882 0-1.765-.349-3.176-.813-4.353h.001zm98.093 21.86v-.235c-.232-.824-.929-1.294-1.625-1.294h-.349l-.58.117h-.348c-.465.118-1.045.118-1.625.118-1.045 0-1.858-.235-2.438-.824-.465-.588-.813-1.647-.813-3.058V11.86h5.108c.929 0 1.741-.824 1.741-1.765V9.86c0-.941-.812-1.765-1.741-1.765h-5.108V3.86c0-.941-.812-1.765-1.741-1.765h-.929c-.928 0-1.741.824-1.741 1.765V22.8c0 1.294.116 2.353.464 3.177.349.823.813 1.529 1.393 2.117.58.588 1.393.941 2.206 1.177.813.235 1.741.353 2.67.353h1.507s.464 0 1.277-.118 1.16-.235 1.277-.235c.464-.118.813-.353 1.045-.824.464-.353.464-.823.348-1.294l.002.001zm-56.418-.941c-.232-.706-.929-1.177-1.741-1.177-.116 0-1.161.236-1.161.236-.464.117-1.045.235-1.51.353-1.16.235-2.089.353-3.134.353-2.09 0-3.598-.589-4.643-1.765-1.045-1.177-1.625-3.059-1.625-5.412 0-1.059.116-2.118.464-3.059.232-.94.697-1.764 1.277-2.353.58-.588 1.16-1.176 1.974-1.53.878-.386 1.827-.586 2.786-.587 1.044 0 1.973 0 2.786.235l1.393.353s1.16.353 1.277.353c.696 0 1.509-.47 1.741-1.177l.116-.353c.116-.47.116-.94-.116-1.294-.182-.391-.519-.69-.929-.823 0 0-.812-.235-2.09-.588h-.115c-1.161-.353-2.67-.471-4.296-.471-1.74 0-3.366.235-4.643.824-1.304.547-2.488 1.346-3.483 2.352-.94 1.06-1.652 2.301-2.09 3.648-.466 1.444-.701 2.953-.696 4.47 0 1.647.233 3.059.58 4.47.349 1.295 1.046 2.589 1.858 3.53.813.941 1.974 1.765 3.367 2.235 1.393.589 3.018.824 4.991.824 1.51 0 2.903-.118 4.18-.47.464-.118 2.321-.707 2.321-.707.465-.117.773-.383 1.045-.78.196-.148.366-1.065.232-1.337l-.116-.353zm41.21-10.706c0-.353-.115-.706-.232-1.059-.116-.353-.116-.588-.232-.941v-.118c-.116-.235-.116-.588-.232-.823 0-.118-.116-.118-.116-.235-.116-.236-.232-.471-.232-.589-.116-.117-.348-.588-.464-.823-.117-.236-.349-.47-.58-.706-1.51-1.882-3.948-2.824-6.966-2.824h-.814c-1.509.118-2.786.47-3.83.942-1.277.588-2.322 1.411-3.135 2.47-.812 1.059-1.509 2.235-1.857 3.647-.465 1.294-.58 2.824-.58 4.353 0 1.647.232 3.177.58 4.47.348 1.412 1.045 2.589 1.857 3.53.813.941 1.974 1.765 3.367 2.235 1.393.589 3.018.824 4.991.824 1.858 0 3.483-.118 4.76-.47h.116c.116 0 .348-.118.464-.118h.116c.233-.118.465-.118.58-.236h.117l.348-.117c.116 0 .116 0 .232-.118.465-.118.813-.47.93-.823.231-.471.231-.942.115-1.295l-.116-.352c-.232-.706-.929-1.177-1.741-1.177h-.465l-.58.118h-.116c-.58.117-1.045.235-1.51.353-.464.117-1.044.235-1.508.235-.465 0-1.045.118-1.742.118-1.973 0-3.482-.589-4.527-1.647-1.045-1.06-1.51-2.471-1.625-4.236h13.234c.928 0 1.74-.823 1.74-1.764v-.353c-.231 0-.231-.118-.231-.236 0-.823-.116-1.53-.116-2.235zm-4.527 0s0 .706.116.941H88.457c.087-1.349.618-2.631 1.51-3.647.812-.823 1.857-1.294 3.25-1.412h.581c.696 0 1.277.118 1.857.236.58.117 1.045.47 1.51.94.464.471.812.942 1.044 1.648l.464 1.294h.001z" transform="translate(-845.000000, -50.000000) translate(845.000000, 50.000000)"/>
            </g>
        </g>
    </g>
</svg>
