<svg xmlns="http://www.w3.org/2000/svg" width="20" height="18" viewBox="0 0 20 18">
    <g fill="none" fill-rule="evenodd">
        <g fill="#8D9091">
            <g>
                <path d="M18.147 7.055h-3.68l-.512 3.95h2.967l1.225-3.95zm-2.922 9.422l1.225-3.95h-2.692l-.513 3.95h1.98zM3.55 12.527l1.225 3.95h2.113l-.512-3.95H3.55zM1.853 7.055l1.225 3.95h3.1l-.512-3.95H1.853zm11.021 0H7.26l.513 3.95h4.59l.512-3.95h-.001zm-1.223 9.422l.513-3.95H7.97l.513 3.95h3.17-.002zm8.315-9.966l-3.31 10.674c-.15.484-.612.815-1.137.815H4.481c-.524 0-.987-.331-1.137-.815L.034 6.51c-.152-.488.228-.98.757-.98H19.21c.529 0 .909.492.757.98l-.001.001zm-7.089-2.11v-.107c0-1.528-1.29-2.77-2.877-2.77-1.586 0-2.877 1.242-2.877 2.77v.107H5.542v-.107C5.542 1.927 7.542 0 10 0c2.459 0 4.459 1.927 4.459 4.294v.107h-1.582z" transform="translate(-1570.000000, -56.000000) translate(1570.000000, 56.000000)"/>
            </g>
        </g>
    </g>
</svg>
